# xmcd
#
# Track frame offsets: 
#        150
#        19372
#        32564
#        55184
#        66306
#        101113
#        121130
#        141170
#        160280
#        173255
#        223887
#        251284
#        271864
#        284261
#        297836
#
# Disc length: 4397 seconds
#
# Revision: 0
# Processed by: cddbd v1.5.2PL0 Copyright (c) Steve Scherf et al.
# Submitted via: ExactAudioCopy v1.1
#
DISCID=db112b0f
DTITLE=Muddy Waters - Authorized Bootleg - Live - Fillmore Auditorium 
DTITLE=1966
DYEAR=2009
DGENRE=Blues
TTITLE0=Forty Days And Forty Nights (live 11-05-66) (mono)
TTITLE1=(I'm Your) Hoochie Coochie Man (live 11-05-66) (mono)
TTITLE2=Rock Me (live 11-05-66) (mono)
TTITLE3=Baby Please Don't Go (live 11-05-66) (mono)
TTITLE4=She Moves Me (live 11-05-66) (mono)
TTITLE5=Got My Mojo Working (live 11-05-66) (mono)
TTITLE6=You Can't Lose What You Ain't Never Had (live 11-06-66) (mono)
TTITLE7=Forty Days And Forty Nights (live 11-06-66) (mono)
TTITLE8=Baby Please Don't Go (live 11-06-66) (mono)
TTITLE9=Thirteen Highway (live 11-06-66) (mono)
TTITLE10=Rock Me (live 11-06-66) (mono)
TTITLE11=Honey Bee (live 11-04-66) (mono)
TTITLE12=Trouble No More (live 11-04-66) (mono)
TTITLE13=(I'm Your) Hoochie Coochie Man (live 11-04-66) (mono)
TTITLE14=Long Distance Call (live 11-04-66) (mono)
EXTD=
EXTT0=
EXTT1=
EXTT2=
EXTT3=
EXTT4=
EXTT5=
EXTT6=
EXTT7=
EXTT8=
EXTT9=
EXTT10=
EXTT11=
EXTT12=
EXTT13=
EXTT14=
PLAYORDER=
